<?xml version="1.0" encoding="utf-8"?>
<!-- Svg Vector Icons : http://www.onlinewebfonts.com/icon -->
<!DOCTYPE svg PUBLIC "-//W3C//DTD SVG 1.1//EN" "http://www.w3.org/Graphics/SVG/1.1/DTD/svg11.dtd">
<svg version="1.1" xmlns="http://www.w3.org/2000/svg" xmlns:xlink="http://www.w3.org/1999/xlink" x="0px" y="0px" viewBox="0 0 256 256" enable-background="new 0 0 256 256" xml:space="preserve">
<metadata> Svg Vector Icons : http://www.onlinewebfonts.com/icon </metadata>
<g><g><path fill="#000000" d="M91.9,122.1h26.2c1.8,0,3.3-1.3,3.3-2.9c0-1.6-1.5-2.9-3.3-2.9H91.9c-1.8,0-3.3,1.3-3.3,2.9S90.1,122.1,91.9,122.1z"/><path fill="#000000" d="M91.9,104.4h26.2c1.8,0,3.3-1.3,3.3-2.9c0-1.6-1.5-3-3.3-3H91.9c-1.8,0-3.3,1.3-3.3,3C88.7,103.1,90.1,104.4,91.9,104.4z"/><path fill="#000000" d="M91.9,86.7h26.2c1.8,0,3.3-1.3,3.3-3c0-1.6-1.5-3-3.3-3H91.9c-1.8,0-3.3,1.3-3.3,3C88.7,85.4,90.1,86.7,91.9,86.7z"/><path fill="#000000" d="M131.3,80.8h32.8v41.3h-32.8V80.8L131.3,80.8z"/><path fill="#000000" d="M91.9,157.5h72.1c1.8,0,3.3-1.3,3.3-3c0-1.6-1.5-3-3.3-3H91.9c-1.8,0-3.3,1.3-3.3,3C88.7,156.2,90.1,157.5,91.9,157.5z"/><path fill="#000000" d="M91.9,139.8h72.1c1.8,0,3.3-1.3,3.3-3c0-1.6-1.5-2.9-3.3-2.9H91.9c-1.8,0-3.3,1.3-3.3,2.9C88.7,138.5,90.1,139.8,91.9,139.8z"/><path fill="#000000" d="M128,10C62.8,10,10,62.8,10,128c0,65.2,52.8,118,118,118c65.2,0,118-52.8,118-118C246,62.8,193.2,10,128,10z M187,195.8H69V60.1h118V195.8z"/><path fill="#000000" d="M91.9,175.2h72.1c1.8,0,3.3-1.3,3.3-3s-1.5-3-3.3-3H91.9c-1.8,0-3.3,1.3-3.3,3S90.1,175.2,91.9,175.2z"/></g></g>
</svg>